Coordinates
version=1
nRows=6
nColumns=46
inDegrees=yes

Units are S.I. units (second, meters, Newtons, ...)
Angles are in degrees.

endheader
time	pelvis_tilt	pelvis_list	pelvis_rotation	pelvis_tx	pelvis_ty	pelvis_tz	bb_angle	bb_tx	bb_ty	bb_tz	hip_flexion_r	hip_adduction_r	hip_rotation_r	knee_angle_r	knee_angle_r_beta	ankle_angle_r	subtalar_angle_r	mtp_angle_r	crank_angle_r	hip_flexion_l	hip_adduction_l	hip_rotation_l	knee_angle_l	knee_angle_l_beta	ankle_angle_l	subtalar_angle_l	mtp_angle_l	crank_angle_l	lumbar_extension	lumbar_bending	lumbar_rotation	arm_flex_r	arm_add_r	arm_rot_r	elbow_flex_r	pro_sup_r	wrist_flex_r	wrist_dev_r	arm_flex_l	arm_add_l	arm_rot_l	elbow_flex_l	pro_sup_l	wrist_flex_l	wrist_dev_l
      5.00500000	    -35.62058455	     -8.83919570	     -9.25495593	      0.41799550	      1.06269822	     -0.21891065	      0.00000000	      0.50000000	      0.00000000	      0.25000000	     77.80730305	      6.94410137	     -0.50219750	    106.63154879	      1.86107161	    -16.68469897	     -8.93379870	      0.00000000	      0.00000000	     36.98816957	    -16.63561751	     -8.79643089	     21.53108415	      0.37578831	    -18.11440667	     -5.11393585	      0.00000000	      0.00000000	    -57.27232407	      2.00554817	      2.82878697	     36.03431053	    -31.06433993	     30.28105371	    113.23703863	     55.44443660	      0.00000000	      0.00000000	      1.68135043	    -23.40005843	      0.29752867	    126.56241235	     54.69425406	      0.00000000	      0.00000000
      5.01000000	    -35.65142584	     -9.06901552	     -9.65809325	      0.41733210	      1.06310102	     -0.21897398	      0.00000000	      0.50000000	      0.00000000	      0.25000000	     79.25543042	      7.13051677	     -0.80699487	    107.49266586	      1.87610094	    -15.84176308	     -8.77514597	      0.00000000	      0.00000000	     35.92479170	    -17.02071465	     -9.78049470	     20.38096345	      0.35571492	    -20.10409298	     -4.77597716	      0.00000000	      0.00000000	    -57.31349255	      2.18054289	      3.57455447	     36.30196072	    -31.41996782	     30.43109053	    113.53999507	     55.49597756	      0.00000000	      0.00000000	      2.43352259	    -23.18718420	      0.35998376	    126.35048876	     54.68813181	      0.00000000	      0.00000000
      5.01500000	    -35.84218718	     -9.45553921	    -10.05933682	      0.41669661	      1.06364081	     -0.21862569	      0.00000000	      0.50000000	      0.00000000	      0.25000000	     80.75702222	      7.42087762	     -1.38255079	    108.03671879	      1.88559646	    -15.71019592	     -8.53033143	      0.00000000	      0.00000000	     35.20854561	    -17.62352074	    -10.58454652	     19.56634722	      0.34149718	    -22.00194017	     -4.23923179	      0.00000000	      0.00000000	    -57.28473052	      2.44603831	      4.25378815	     36.58420968	    -31.37744958	     30.45715117	    113.66461173	     55.51067537	      0.00000000	      0.00000000	      2.82595064	    -23.17204932	      0.25170858	    126.48369985	     54.69550885	      0.00000000	      0.00000000
      5.02000000	    -35.73771615	     -9.51379177	    -10.51907159	      0.41656090	      1.06504022	     -0.21865053	      0.00000000	      0.50000000	      0.00000000	      0.25000000	     81.84383147	      7.70243115	     -1.44864268	    108.40358044	      1.89199940	    -15.22104786	     -8.14870123	      0.00000000	      0.00000000	     33.96972662	    -17.79272325	    -11.59926452	     18.40199128	      0.32117534	    -24.45530274	     -4.53380187	      0.00000000	      0.00000000	    -57.57755615	      2.37127061	      4.90964979	     36.82353030	    -31.75546804	     30.66063851	    113.97827513	     55.57145341	      0.00000000	      0.00000000	      3.88608250	    -22.75705738	      0.23474912	    126.21497417	     54.65833519	      0.00000000	      0.00000000
      5.02500000	    -35.98050109	     -9.80459355	    -10.80368629	      0.41600343	      1.06597727	     -0.21854181	      0.00000000	      0.50000000	      0.00000000	      0.25000000	     83.19669124	      7.97418657	     -1.84339591	    108.57423520	      1.89497789	    -14.83678530	     -8.01958435	      0.00000000	      0.00000000	     33.52651201	    -18.23313333	    -12.19991054	     17.90056685	      0.31242383	    -26.38357445	     -4.24568464	      0.00000000	      0.00000000	    -57.61675302	      2.62239080	      5.51305145	     37.13728709	    -31.66397839	     30.71208503	    114.12856736	     55.59153684	      0.00000000	      0.00000000	      4.32418678	    -22.75576167	      0.17887490	    126.24110951	     54.65401000	      0.00000000	      0.00000000
      5.03000000	    -36.15691676	     -9.93978648	    -11.03444677	      0.41589561	      1.06759351	     -0.21838310	      0.00000000	      0.50000000	      0.00000000	      0.25000000	     84.32879547	      8.10560484	     -2.14210067	    108.51476925	      1.89394001	    -14.45270461	     -7.79343449	      0.00000000	      0.00000000	     32.83378520	    -18.34886264	    -12.38154216	     16.97494363	      0.29626866	    -29.05786489	     -5.13373656	      0.00000000	      0.00000000	    -57.73307921	      2.74690756	      6.33727269	     37.20091099	    -32.22837653	     30.88505568	    114.68735737	     55.67168616	      0.00000000	      0.00000000	      5.63611936	    -22.42493818	      0.68073125	    125.30914816	     54.59795511	      0.00000000	      0.00000000
